<svg width="20" height="20" viewBox="0 0 20 20" fill="none" xmlns="http://www.w3.org/2000/svg">
<g id="Action / contact support">
<mask id="mask0_286_3349" style="mask-type:alpha" maskUnits="userSpaceOnUse" x="2" y="1" width="16" height="18">
<g id="Icon Mask">
<path id="Round" fill-rule="evenodd" clip-rule="evenodd" d="M9.99996 1.6665C6.09163 1.6665 2.91663 4.8415 2.91663 8.74984C2.91663 12.6582 6.09163 15.8332 9.99996 15.8332H10.4166V18.3332C14.4666 16.3832 17.0833 12.4998 17.0833 8.74984C17.0833 4.8415 13.9083 1.6665 9.99996 1.6665ZM9.16663 13.7498V12.0832H10.8333V13.7498H9.16663ZM11.1418 9.80816C11.1501 9.79149 11.1584 9.77483 11.1668 9.76649C11.3936 9.43387 11.7095 9.15686 12.0298 8.87604C12.7687 8.22818 13.5309 7.55997 13.2751 6.14149C13.0334 4.73316 11.9084 3.57482 10.5001 3.36649C8.78343 3.11649 7.26676 4.17482 6.80843 5.69149C6.66676 6.17482 7.03343 6.66649 7.53343 6.66649H7.7001C8.04176 6.66649 8.31676 6.42482 8.43343 6.12482C8.7001 5.38316 9.48343 4.87482 10.3501 5.05816C11.1501 5.22482 11.7334 6.01649 11.6584 6.83316C11.602 7.46944 11.1474 7.82136 10.643 8.21187C10.3282 8.45556 9.99407 8.71427 9.7251 9.06649L9.71676 9.05816C9.70232 9.0726 9.69066 9.09261 9.67856 9.11336C9.66972 9.12852 9.66065 9.14408 9.6501 9.15816C9.6376 9.17899 9.62301 9.19982 9.60843 9.22066C9.59385 9.24149 9.57926 9.26233 9.56676 9.28316C9.49176 9.39983 9.43343 9.51649 9.38343 9.64982C9.37926 9.66649 9.37093 9.67899 9.3626 9.69149C9.35426 9.70399 9.34593 9.71649 9.34176 9.73316C9.33343 9.74149 9.33343 9.74982 9.33343 9.75816C9.23343 10.0582 9.16676 10.4165 9.16676 10.8415H10.8418C10.8418 10.6332 10.8668 10.4498 10.9251 10.2748C10.9418 10.2165 10.9668 10.1582 10.9918 10.0998L10.9918 10.0998C11.0001 10.0665 11.0084 10.0332 11.0251 10.0082C11.0584 9.94149 11.1001 9.87483 11.1418 9.80817L11.1418 9.80816Z" fill="black"/>
</g>
</mask>
<g mask="url(#mask0_286_3349)">
<rect id="Color Fill" width="20" height="20" fill="#19AB4F"/>
</g>
</g>
</svg>
