<svg width="20" height="20" viewBox="0 0 20 20" fill="none" xmlns="http://www.w3.org/2000/svg">
<path d="M12.7344 9.45312C11.8298 9.45312 11.0938 10.1892 11.0938 11.0937C11.0938 11.3956 11.3388 11.6406 11.6406 11.6406C11.9425 11.6406 12.1875 11.3956 12.1875 11.0937C12.1875 10.7919 12.4336 10.5469 12.7344 10.5469C13.0352 10.5469 13.2813 10.7919 13.2813 11.0937C13.2813 11.3956 13.5263 11.6406 13.8281 11.6406C14.13 11.6406 14.375 11.3956 14.375 11.0937C14.375 10.1892 13.6389 9.45312 12.7344 9.45312Z" fill="#19AB4F"/>
<path d="M7.26563 9.45312C6.36109 9.45312 5.625 10.1892 5.625 11.0937C5.625 11.3956 5.87 11.6406 6.17188 11.6406C6.47375 11.6406 6.71875 11.3956 6.71875 11.0937C6.71875 10.7919 6.96375 10.5469 7.26563 10.5469C7.5675 10.5469 7.8125 10.7919 7.8125 11.0937C7.8125 11.3956 8.0575 11.6406 8.35938 11.6406C8.66125 11.6406 8.90625 11.3956 8.90625 11.0937C8.90625 10.1892 8.17016 9.45312 7.26563 9.45312Z" fill="#19AB4F"/>
<path d="M18.5561 16.6905C17.7008 15.9752 17.1857 14.0097 16.8925 12.1547C17.9414 11.9939 18.7508 11.0938 18.7508 10C18.7508 8.79359 17.7697 7.8125 16.5633 7.8125C16.5633 4.19328 13.62 1.25 10.0008 1.25C6.3816 1.25 3.43832 4.19328 3.43832 7.8125C2.23191 7.8125 1.25082 8.79359 1.25082 10C1.25082 11.0938 2.06019 11.9939 3.1091 12.1547C2.81488 14.0097 2.29972 15.9752 1.4455 16.6916C1.26941 16.8392 1.20379 17.0809 1.28363 17.2975C1.36238 17.5119 1.568 17.6562 1.79769 17.6562H6.38051C7.41957 18.3464 8.66316 18.75 10.0008 18.75C11.3385 18.75 12.5821 18.3464 13.6211 17.6562H18.2039C18.4336 17.6562 18.6393 17.5119 18.718 17.2964C18.7968 17.0809 18.7322 16.8381 18.5561 16.6905ZM15.4696 12.1875C15.4696 12.9663 15.3011 13.7034 15.0058 14.375H11.5408C11.3144 13.7395 10.7128 13.2812 10.0008 13.2812C9.09629 13.2812 8.36019 14.0173 8.36019 14.9219C8.36019 15.8264 9.09629 16.5625 10.0008 16.5625C10.7128 16.5625 11.3144 16.1042 11.5408 15.4688H14.3485C13.3488 16.7889 11.7803 17.6562 10.0008 17.6562C6.98535 17.6562 4.53207 15.203 4.53207 12.1875V8.88984C8.03097 8.80562 9.94832 7.95359 10.9764 7.07531C12.0669 7.90219 13.5708 8.45344 15.4696 8.71484V12.1875Z" fill="#19AB4F"/>
</svg>
