<svg width="201" height="24" viewBox="0 0 201 24" fill="none" xmlns="http://www.w3.org/2000/svg">
<mask id="mask0_258_177" style="mask-type:alpha" maskUnits="userSpaceOnUse" x="1" y="6" width="22" height="12">
<path fill-rule="evenodd" clip-rule="evenodd" d="M3 6H21C22.1 6 23 6.9 23 8V16C23 17.1 22.1 18 21 18H3C1.9 18 1 17.1 1 16V8C1 6.9 1.9 6 3 6ZM4 16H20C20.55 16 21 15.55 21 15V9C21 8.45 20.55 8 20 8H19V11C19 11.55 18.55 12 18 12C17.45 12 17 11.55 17 11V8H15V11C15 11.55 14.55 12 14 12C13.45 12 13 11.55 13 11V8H11V11C11 11.55 10.55 12 10 12C9.45 12 9 11.55 9 11V8H7V11C7 11.55 6.55 12 6 12C5.45 12 5 11.55 5 11V8H4C3.45 8 3 8.45 3 9V15C3 15.55 3.45 16 4 16Z" fill="black"/>
</mask>
<g mask="url(#mask0_258_177)">
<rect width="24" height="24" fill="white"/>
</g>
<path d="M35.44 17V5.8H40.464C41.7547 5.8 42.7307 6.13067 43.392 6.792C43.8933 7.29333 44.144 7.92267 44.144 8.68C44.144 9.78933 43.6107 10.6213 42.544 11.176C44.0267 11.6773 44.768 12.5947 44.768 13.928C44.768 14.9093 44.3947 15.6667 43.648 16.2C42.9013 16.7333 41.8933 17 40.624 17H35.44ZM37.376 10.52H40.064C40.7147 10.52 41.2267 10.392 41.6 10.136C41.984 9.86933 42.176 9.48 42.176 8.968C42.176 8.52 42.0053 8.17333 41.664 7.928C41.3227 7.672 40.8373 7.544 40.208 7.544H37.376V10.52ZM37.376 15.256H40.64C41.3227 15.256 41.8507 15.1227 42.224 14.856C42.608 14.5893 42.8 14.2 42.8 13.688C42.8 12.6853 42.032 12.184 40.496 12.184H37.376V15.256ZM46.7629 17V8.552H48.6989V11.512H50.4749C51.4775 11.512 52.2882 11.736 52.9069 12.184C53.5255 12.632 53.8349 13.2987 53.8349 14.184C53.8349 15.0587 53.5469 15.7467 52.9709 16.248C52.3949 16.7493 51.6109 17 50.6189 17H46.7629ZM48.6989 15.432H50.3629C50.8535 15.432 51.2322 15.3253 51.4989 15.112C51.7655 14.8987 51.8989 14.5893 51.8989 14.184C51.8989 13.8107 51.7602 13.5227 51.4829 13.32C51.2162 13.1173 50.8322 13.016 50.3309 13.016H48.6989V15.432ZM55.1149 17V8.552H57.0509V17H55.1149ZM62.3616 17.192C60.911 17.192 59.679 16.76 58.6656 15.896L59.5776 14.616C60.367 15.288 61.2523 15.624 62.2336 15.624C62.6816 15.624 63.0603 15.5173 63.3696 15.304C63.679 15.08 63.8336 14.7973 63.8336 14.456C63.8336 14.136 63.6843 13.88 63.3856 13.688C63.087 13.496 62.6656 13.4 62.1216 13.4H61.0816V12.008H62.1216C62.5696 12.008 62.927 11.9067 63.1936 11.704C63.471 11.4907 63.6096 11.224 63.6096 10.904C63.6096 10.616 63.4763 10.3867 63.2096 10.216C62.9536 10.0347 62.623 9.944 62.2176 9.944C61.279 9.944 60.479 10.232 59.8176 10.808L58.9536 9.592C59.8816 8.78133 61.0283 8.376 62.3936 8.376C63.3216 8.376 64.079 8.58933 64.6656 9.016C65.2523 9.44267 65.5456 9.98667 65.5456 10.648C65.5456 11.544 65.103 12.184 64.2176 12.568C65.2416 12.9307 65.7536 13.6133 65.7536 14.616C65.7536 15.3413 65.439 15.9547 64.8096 16.456C64.1803 16.9467 63.3643 17.192 62.3616 17.192ZM67.7629 17V8.552H72.0989C72.9415 8.552 73.6135 8.744 74.1149 9.128C74.6269 9.50133 74.8829 10.0133 74.8829 10.664C74.8829 11.5493 74.4295 12.1947 73.5229 12.6C74.6855 12.9307 75.2669 13.6347 75.2669 14.712C75.2669 15.4267 74.9842 15.9867 74.4189 16.392C73.8642 16.7973 73.1069 17 72.1469 17H67.7629ZM69.6669 15.464H71.8589C72.3175 15.464 72.6695 15.368 72.9149 15.176C73.1709 14.9733 73.2989 14.7067 73.2989 14.376C73.2989 14.056 73.1655 13.8053 72.8989 13.624C72.6429 13.4427 72.2642 13.352 71.7629 13.352H69.6669V15.464ZM69.6669 12.04H71.6509C72.0455 12.04 72.3549 11.944 72.5789 11.752C72.8029 11.56 72.9149 11.3093 72.9149 11C72.9149 10.712 72.8135 10.4827 72.6109 10.312C72.4082 10.1307 72.0989 10.04 71.6829 10.04H69.6669V12.04ZM84.2884 17H82.3684V15.96C81.6857 16.7707 80.7737 17.176 79.6324 17.176C78.7897 17.176 78.075 16.9467 77.4884 16.488C76.9124 16.0187 76.6244 15.368 76.6244 14.536C76.6244 13.6293 76.939 12.9413 77.5684 12.472C78.1977 12.0027 79.0244 11.768 80.0484 11.768C80.8697 11.768 81.6484 11.8853 82.3844 12.12V11.96C82.3844 11.3733 82.203 10.9253 81.8404 10.616C81.4884 10.3067 80.9764 10.152 80.3044 10.152C79.5364 10.152 78.731 10.328 77.8884 10.68L77.3604 9.128C78.4057 8.65867 79.4777 8.424 80.5764 8.424C81.803 8.424 82.7257 8.73333 83.3444 9.352C83.9737 9.97067 84.2884 10.8507 84.2884 11.992V17ZM82.4164 13.944V13.464C81.8404 13.24 81.195 13.128 80.4804 13.128C79.8724 13.128 79.3977 13.2453 79.0564 13.48C78.715 13.7147 78.5444 14.0453 78.5444 14.472C78.5444 14.856 78.699 15.16 79.0084 15.384C79.3177 15.608 79.707 15.72 80.1764 15.72C80.827 15.72 81.3604 15.5547 81.7764 15.224C82.203 14.8933 82.4164 14.4667 82.4164 13.944ZM88.399 17V10.216H85.679V8.552H93.071V10.216H90.351V17H88.399ZM94.6066 17V8.552H96.5426V11.512H98.4786C99.4813 11.512 100.292 11.736 100.911 12.184C101.529 12.632 101.839 13.2987 101.839 14.184C101.839 15.0587 101.551 15.7467 100.975 16.248C100.399 16.7493 99.6146 17 98.6226 17H94.6066ZM96.5426 15.432H98.3666C98.8573 15.432 99.236 15.3253 99.5026 15.112C99.7693 14.8987 99.9026 14.5893 99.9026 14.184C99.9026 13.8107 99.764 13.5227 99.4866 13.32C99.22 13.1173 98.836 13.016 98.3346 13.016H96.5426V15.432ZM111.205 17.192C109.755 17.192 108.523 16.76 107.509 15.896L108.421 14.616C109.211 15.288 110.096 15.624 111.077 15.624C111.525 15.624 111.904 15.5173 112.213 15.304C112.523 15.08 112.677 14.7973 112.677 14.456C112.677 14.136 112.528 13.88 112.229 13.688C111.931 13.496 111.509 13.4 110.965 13.4H109.925V12.008H110.965C111.413 12.008 111.771 11.9067 112.037 11.704C112.315 11.4907 112.453 11.224 112.453 10.904C112.453 10.616 112.32 10.3867 112.053 10.216C111.797 10.0347 111.467 9.944 111.061 9.944C110.123 9.944 109.323 10.232 108.661 10.808L107.797 9.592C108.725 8.78133 109.872 8.376 111.237 8.376C112.165 8.376 112.923 8.58933 113.509 9.016C114.096 9.44267 114.389 9.98667 114.389 10.648C114.389 11.544 113.947 12.184 113.061 12.568C114.085 12.9307 114.597 13.6133 114.597 14.616C114.597 15.3413 114.283 15.9547 113.653 16.456C113.024 16.9467 112.208 17.192 111.205 17.192ZM123.695 17H121.775V15.96C121.092 16.7707 120.18 17.176 119.039 17.176C118.196 17.176 117.481 16.9467 116.895 16.488C116.319 16.0187 116.031 15.368 116.031 14.536C116.031 13.6293 116.345 12.9413 116.975 12.472C117.604 12.0027 118.431 11.768 119.455 11.768C120.276 11.768 121.055 11.8853 121.791 12.12V11.96C121.791 11.3733 121.609 10.9253 121.247 10.616C120.895 10.3067 120.383 10.152 119.711 10.152C118.943 10.152 118.137 10.328 117.295 10.68L116.767 9.128C117.812 8.65867 118.884 8.424 119.983 8.424C121.209 8.424 122.132 8.73333 122.751 9.352C123.38 9.97067 123.695 10.8507 123.695 11.992V17ZM121.823 13.944V13.464C121.247 13.24 120.601 13.128 119.887 13.128C119.279 13.128 118.804 13.2453 118.463 13.48C118.121 13.7147 117.951 14.0453 117.951 14.472C117.951 14.856 118.105 15.16 118.415 15.384C118.724 15.608 119.113 15.72 119.583 15.72C120.233 15.72 120.767 15.5547 121.183 15.224C121.609 14.8933 121.823 14.4667 121.823 13.944ZM125.997 17V8.552H127.917L130.557 12.472L133.213 8.552H135.133V17H133.181V11.368L130.525 15.16L127.885 11.4V17H125.997ZM141.432 17.192C140.194 17.192 139.16 16.7813 138.328 15.96C137.506 15.1387 137.096 14.0773 137.096 12.776C137.096 11.5493 137.485 10.5093 138.264 9.656C139.042 8.80267 140.029 8.376 141.224 8.376C142.504 8.376 143.496 8.81333 144.2 9.688C144.914 10.552 145.272 11.6293 145.272 12.92C145.272 13.1547 145.261 13.336 145.24 13.464H139.032C139.138 14.136 139.41 14.664 139.848 15.048C140.285 15.4213 140.824 15.608 141.464 15.608C142.296 15.608 143.058 15.272 143.752 14.6L144.888 15.608C144.013 16.664 142.861 17.192 141.432 17.192ZM139.016 12.184H143.352C143.288 11.5333 143.069 11 142.696 10.584C142.322 10.168 141.826 9.96 141.208 9.96C140.621 9.96 140.13 10.168 139.736 10.584C139.341 10.9893 139.101 11.5227 139.016 12.184ZM147.216 19.56V8.552H149.152V9.96C149.899 8.904 150.853 8.376 152.016 8.376C153.083 8.376 154.005 8.776 154.784 9.576C155.563 10.3653 155.952 11.4373 155.952 12.792C155.952 14.1253 155.563 15.192 154.784 15.992C154.005 16.7813 153.083 17.176 152.016 17.176C150.853 17.176 149.899 16.68 149.152 15.688V19.56H147.216ZM151.568 15.496C152.251 15.496 152.821 15.2453 153.28 14.744C153.749 14.2427 153.984 13.5813 153.984 12.76C153.984 11.96 153.749 11.3093 153.28 10.808C152.811 10.3067 152.24 10.056 151.568 10.056C150.896 10.056 150.315 10.312 149.824 10.824C149.344 11.336 149.104 11.992 149.104 12.792C149.104 13.5813 149.344 14.232 149.824 14.744C150.315 15.2453 150.896 15.496 151.568 15.496ZM169.311 19.032V17H157.935V8.552H159.871V15.336H162.991V8.552H164.911V15.336H168.031V8.552H169.967V15.336H171.167L170.927 19.032H169.311ZM172.779 17V8.552H174.667V14.216C176.437 11.6987 177.771 9.81067 178.667 8.552H180.491V17H178.619V11.368L174.603 17H172.779ZM182.919 17V8.552H184.839V12.6L188.519 8.552H190.791L187.511 12.104L191.063 17H188.775L186.215 13.512L184.839 14.968V17H182.919ZM199.492 17H197.572V15.96C196.889 16.7707 195.977 17.176 194.836 17.176C193.993 17.176 193.278 16.9467 192.692 16.488C192.116 16.0187 191.828 15.368 191.828 14.536C191.828 13.6293 192.142 12.9413 192.772 12.472C193.401 12.0027 194.228 11.768 195.252 11.768C196.073 11.768 196.852 11.8853 197.588 12.12V11.96C197.588 11.3733 197.406 10.9253 197.044 10.616C196.692 10.3067 196.18 10.152 195.508 10.152C194.74 10.152 193.934 10.328 193.092 10.68L192.564 9.128C193.609 8.65867 194.681 8.424 195.78 8.424C197.006 8.424 197.929 8.73333 198.548 9.352C199.177 9.97067 199.492 10.8507 199.492 11.992V17ZM197.62 13.944V13.464C197.044 13.24 196.398 13.128 195.684 13.128C195.076 13.128 194.601 13.2453 194.26 13.48C193.918 13.7147 193.748 14.0453 193.748 14.472C193.748 14.856 193.902 15.16 194.212 15.384C194.521 15.608 194.91 15.72 195.38 15.72C196.03 15.72 196.564 15.5547 196.98 15.224C197.406 14.8933 197.62 14.4667 197.62 13.944Z" fill="white"/>
</svg>
