<svg width="20" height="20" viewBox="0 0 20 20" fill="none" xmlns="http://www.w3.org/2000/svg">
<g id="Action / history">
<mask id="mask0_286_3365" style="mask-type:alpha" maskUnits="userSpaceOnUse" x="1" y="2" width="18" height="16">
<g id="Icon Mask">
<path id="Round" fill-rule="evenodd" clip-rule="evenodd" d="M3.45344 10.0014C3.45344 5.79311 6.92843 2.38478 11.1701 2.50144C15.0784 2.60978 18.3451 5.87644 18.4534 9.78478C18.5701 14.0264 15.1618 17.5014 10.9534 17.5014C9.21177 17.5014 7.6201 16.9098 6.35344 15.9098C5.96177 15.6098 5.93677 15.0181 6.28677 14.6681C6.58677 14.3681 7.05343 14.3431 7.38677 14.6014C8.3701 15.3764 9.61177 15.8348 10.9534 15.8348C14.2034 15.8348 16.8284 13.1764 16.7868 9.91811C16.7451 6.81811 14.1368 4.20978 11.0368 4.16811C7.7701 4.12644 5.1201 6.75144 5.1201 10.0014H6.61177C6.98677 10.0014 7.1701 10.4514 6.91177 10.7098L4.58677 13.0431C4.4201 13.2098 4.16177 13.2098 3.9951 13.0431L1.6701 10.7098C1.40344 10.4514 1.58677 10.0014 1.96177 10.0014H3.45344ZM10.12 7.29309C10.12 6.95142 10.4034 6.66809 10.745 6.66809C11.0867 6.66809 11.37 6.95142 11.37 7.28475V10.1181L13.77 11.5431C14.0617 11.7181 14.1617 12.1014 13.9867 12.4014C13.8117 12.6931 13.4284 12.7931 13.1284 12.6181L10.5284 11.0764C10.2784 10.9264 10.12 10.6514 10.12 10.3598V7.29309Z" fill="black"/>
</g>
</mask>
<g mask="url(#mask0_286_3365)">
<rect id="Color Fill" width="20" height="20" fill="#19AB4F"/>
</g>
</g>
</svg>
