<svg width="28" height="30" viewBox="0 0 28 30" fill="none" xmlns="http://www.w3.org/2000/svg">
<mask id="mask0_258_206" style="mask-type:alpha" maskUnits="userSpaceOnUse" x="9" y="8" width="14" height="20">
<path fill-rule="evenodd" clip-rule="evenodd" d="M9 15.2651C9 11.3951 12.13 8.26514 16 8.26514C19.87 8.26514 23 11.3951 23 15.2651C23 19.4351 18.58 25.1851 16.77 27.3751C16.37 27.8551 15.64 27.8551 15.24 27.3751C13.42 25.1851 9 19.4351 9 15.2651ZM13.5 15.2651C13.5 16.6451 14.62 17.7651 16 17.7651C17.38 17.7651 18.5 16.6451 18.5 15.2651C18.5 13.8851 17.38 12.7651 16 12.7651C14.62 12.7651 13.5 13.8851 13.5 15.2651Z" fill="black"/>
</mask>
<g mask="url(#mask0_258_206)">
<rect x="4" y="6" width="24" height="24" fill="#2C3A4B"/>
</g>
<rect width="16" height="16" rx="8" fill="#19AB4F"/>
<path d="M9.26562 8.43164C8.78906 8.93555 8.23242 9.1875 7.5957 9.1875C6.8457 9.1875 6.24805 8.92578 5.80273 8.40234C5.35742 7.875 5.13477 7.18359 5.13477 6.32812C5.13477 5.76562 5.24805 5.25586 5.47461 4.79883C5.70117 4.3418 6.02344 3.98633 6.44141 3.73242C6.85938 3.47852 7.34375 3.35156 7.89453 3.35156C8.75391 3.35156 9.43555 3.67188 9.93945 4.3125C10.4434 4.95312 10.6953 5.81055 10.6953 6.88477V7.2832C10.6953 8.82227 10.3477 9.99609 9.65234 10.8047C8.95703 11.6133 7.91992 12.0234 6.54102 12.0352H6.37109V10.8574H6.57617C7.41602 10.8457 8.06055 10.6445 8.50977 10.2539C8.95898 9.85938 9.21094 9.25195 9.26562 8.43164ZM7.89453 8.07422C8.17969 8.07422 8.44727 7.99219 8.69727 7.82812C8.94727 7.66406 9.14062 7.4375 9.27734 7.14844V6.5918C9.27734 5.96289 9.14844 5.45703 8.89062 5.07422C8.63281 4.69141 8.29883 4.5 7.88867 4.5C7.47852 4.5 7.15039 4.66992 6.9043 5.00977C6.66211 5.3457 6.54102 5.77148 6.54102 6.28711C6.54102 6.82227 6.66406 7.25391 6.91016 7.58203C7.15625 7.91016 7.48438 8.07422 7.89453 8.07422Z" fill="white"/>
</svg>
