<svg width="20" height="20" viewBox="0 0 20 20" fill="none" xmlns="http://www.w3.org/2000/svg">
<mask id="mask0_286_3376" style="mask-type:alpha" maskUnits="userSpaceOnUse" x="1" y="3" width="18" height="14">
<path fill-rule="evenodd" clip-rule="evenodd" d="M3.33329 3.3335H16.6666C17.5833 3.3335 18.3333 4.0835 18.3333 5.00016V15.0002C18.3333 15.9168 17.5833 16.6668 16.6666 16.6668H3.33329C2.41663 16.6668 1.66663 15.9168 1.66663 15.0002V5.00016C1.66663 4.0835 2.41663 3.3335 3.33329 3.3335ZM10.8832 10.2835L16.3332 6.87515C16.5415 6.74182 16.6665 6.51682 16.6665 6.27515C16.6665 5.71682 16.0582 5.38348 15.5832 5.67515L9.99988 9.16682L4.41654 5.67515C3.94154 5.38348 3.33321 5.71682 3.33321 6.27515C3.33321 6.51682 3.45821 6.74182 3.66654 6.87515L9.11654 10.2835C9.65821 10.6251 10.3415 10.6251 10.8832 10.2835Z" fill="black"/>
</mask>
<g mask="url(#mask0_286_3376)">
<rect width="20" height="20" fill="#19AB4F"/>
</g>
</svg>
