<svg width="20" height="20" viewBox="0 0 20 20" fill="none" xmlns="http://www.w3.org/2000/svg">
<path d="M17.9631 5.53305C17.961 5.52923 17.9594 5.52534 17.9573 5.52157C17.9564 5.51996 17.9553 5.51851 17.9543 5.51691C17.8425 5.32497 17.6814 5.16634 17.4878 5.05739L10.6129 1.19021C10.4255 1.08565 10.2146 1.03076 10 1.03076C9.7855 1.03076 9.57454 1.08565 9.38721 1.19021L2.51213 5.05743C2.31778 5.16689 2.15628 5.32637 2.04439 5.51932C2.04319 5.52142 2.04174 5.52332 2.04056 5.52546C2.03865 5.52885 2.03728 5.5324 2.03545 5.53583C1.93047 5.72239 1.87522 5.93281 1.875 6.14687V13.8533C1.87517 14.0751 1.93426 14.2928 2.04622 14.4843C2.15819 14.6757 2.319 14.8339 2.5122 14.9428L9.38728 18.81C9.56046 18.9068 9.75423 18.961 9.95251 18.968C9.96672 18.9691 9.98087 18.9704 9.99535 18.9705H10.001C10.0207 18.9705 10.0401 18.9694 10.0593 18.9676C10.2536 18.9589 10.4431 18.905 10.6128 18.81L17.4878 14.9428C17.681 14.834 17.8418 14.6757 17.9538 14.4843C18.0658 14.2928 18.1248 14.0751 18.125 13.8533V6.14687C18.1248 5.93173 18.069 5.72029 17.9631 5.53305ZM10 2.27969L16.23 5.78406L13.8377 7.14312L7.53437 3.66659L10 2.27969ZM10.0711 9.28301L3.7796 5.77868L6.25301 4.38738L12.5628 7.86745L10.0711 9.28301ZM10.6345 17.3636L10.696 10.3657L13.2049 8.9403V11.915C13.2049 12.0808 13.2707 12.2397 13.3879 12.3569C13.5051 12.4742 13.6641 12.54 13.8299 12.54C13.9956 12.54 14.1546 12.4742 14.2718 12.3569C14.389 12.2397 14.4549 12.0808 14.4549 11.915V8.23016L16.875 6.85526V13.8533L10.6345 17.3636Z" fill="#19AB4F"/>
</svg>
