<svg width="24" height="24" viewBox="0 0 24 24" fill="none" xmlns="http://www.w3.org/2000/svg">
<mask id="mask0_258_197" style="mask-type:alpha" maskUnits="userSpaceOnUse" x="3" y="3" width="18" height="18">
<path d="M19.2019 15.2829L16.6619 14.9929C16.0519 14.9229 15.4519 15.1329 15.0219 15.5629L13.1819 17.4029C10.3519 15.9629 8.03185 13.6529 6.59185 10.8129L8.44185 8.96295C8.87185 8.53295 9.08185 7.92295 9.01185 7.32295L8.72185 4.80295C8.61185 3.79295 7.75185 3.02295 6.74185 3.02295H5.01185C3.88185 3.02295 2.94185 3.96295 3.01185 5.09295C3.54185 13.6329 10.3719 20.4529 18.9019 20.9829C20.0319 21.0529 20.9719 20.1129 20.9719 18.9829V17.2529C20.9819 16.2529 20.2119 15.3929 19.2019 15.2829Z" fill="black"/>
</mask>
<g mask="url(#mask0_258_197)">
<rect width="24" height="24" fill="#2C3A4B"/>
</g>
</svg>
