<svg width="20" height="20" viewBox="0 0 20 20" fill="none" xmlns="http://www.w3.org/2000/svg">
<mask id="mask0_258_260" style="mask-type:alpha" maskUnits="userSpaceOnUse" x="1" y="1" width="18" height="18">
<path fill-rule="evenodd" clip-rule="evenodd" d="M9.99167 1.6665C5.39167 1.6665 1.66667 5.39984 1.66667 9.99984C1.66667 14.5998 5.39167 18.3332 9.99167 18.3332C14.6 18.3332 18.3333 14.5998 18.3333 9.99984C18.3333 5.39984 14.6 1.6665 9.99167 1.6665ZM10 16.6665C6.31667 16.6665 3.33334 13.6832 3.33334 9.99984C3.33334 6.3165 6.31667 3.33317 10 3.33317C13.6833 3.33317 16.6667 6.3165 16.6667 9.99984C16.6667 13.6832 13.6833 16.6665 10 16.6665ZM9.76667 5.83317H9.81667C10.15 5.83317 10.4167 6.09984 10.4167 6.43317V10.2165L13.6417 12.1332C13.9333 12.2998 14.025 12.6748 13.85 12.9582C13.6833 13.2415 13.3167 13.3248 13.0333 13.1582L9.57501 11.0832C9.31667 10.9332 9.16667 10.6582 9.16667 10.3665V6.43317C9.16667 6.09984 9.43334 5.83317 9.76667 5.83317Z" fill="black"/>
</mask>
<g mask="url(#mask0_258_260)">
<rect width="20" height="20" fill="#2C3A4B"/>
</g>
</svg>
