<svg width="20" height="20" viewBox="0 0 20 20" fill="none" xmlns="http://www.w3.org/2000/svg">
<mask id="mask0_258_224" style="mask-type:alpha" maskUnits="userSpaceOnUse" x="2" y="2" width="16" height="16">
<path fill-rule="evenodd" clip-rule="evenodd" d="M12.6555 12.0598H13.3138L16.8472 15.6098C17.1888 15.9514 17.1888 16.5098 16.8472 16.8514C16.5055 17.1931 15.9472 17.1931 15.6055 16.8514L12.0638 13.3098V12.6514L11.8388 12.4181C10.6722 13.4181 9.08049 13.9348 7.38882 13.6514C5.07216 13.2598 3.22216 11.3264 2.93882 8.9931C2.50549 5.4681 5.47216 2.50143 8.99716 2.93477C11.3305 3.2181 13.2638 5.0681 13.6555 7.38477C13.9388 9.07643 13.4222 10.6681 12.4222 11.8348L12.6555 12.0598ZM4.56383 8.30977C4.56383 10.3848 6.23883 12.0598 8.31383 12.0598C10.3888 12.0598 12.0638 10.3848 12.0638 8.30977C12.0638 6.23477 10.3888 4.55977 8.31383 4.55977C6.23883 4.55977 4.56383 6.23477 4.56383 8.30977Z" fill="black"/>
</mask>
<g mask="url(#mask0_258_224)">
<rect width="20" height="20" fill="#858C94"/>
</g>
</svg>
