<svg width="16" height="16" viewBox="0 0 16 16" fill="none" xmlns="http://www.w3.org/2000/svg">
<mask id="mask0_729_12887" style="mask-type:alpha" maskUnits="userSpaceOnUse" x="1" y="1" width="14" height="14">
<path fill-rule="evenodd" clip-rule="evenodd" d="M7.99301 1.33337C4.31301 1.33337 1.33301 4.32004 1.33301 8.00004C1.33301 11.68 4.31301 14.6667 7.99301 14.6667C11.6797 14.6667 14.6663 11.68 14.6663 8.00004C14.6663 4.32004 11.6797 1.33337 7.99301 1.33337ZM7.99967 13.3334C5.05301 13.3334 2.66634 10.9467 2.66634 8.00004C2.66634 5.05337 5.05301 2.66671 7.99967 2.66671C10.9463 2.66671 13.333 5.05337 13.333 8.00004C13.333 10.9467 10.9463 13.3334 7.99967 13.3334ZM7.81301 4.66671H7.85301C8.11967 4.66671 8.33301 4.88004 8.33301 5.14671V8.17337L10.913 9.70671C11.1463 9.84004 11.2197 10.14 11.0797 10.3667C10.9463 10.5934 10.653 10.66 10.4263 10.5267L7.65967 8.86671C7.45301 8.74671 7.33301 8.52671 7.33301 8.29337V5.14671C7.33301 4.88004 7.54634 4.66671 7.81301 4.66671Z" fill="black"/>
</mask>
<g mask="url(#mask0_729_12887)">
<rect width="16" height="16" fill="#19AB4F"/>
</g>
</svg>
