<svg width="24" height="24" viewBox="0 0 24 24" fill="none" xmlns="http://www.w3.org/2000/svg">
<g id="Action / system vertical_alt">
<mask id="mask0_258_319" style="mask-type:alpha" maskUnits="userSpaceOnUse" x="3" y="1" width="18" height="22">
<g id="Icon Mask">
<path id="Round" fill-rule="evenodd" clip-rule="evenodd" d="M3 8.01L3 3C3 1.9 3.9 1 5 1L19 0.999999C20.1 0.999999 21 1.9 21 3L21 21C21 22.1 20.1 23 19 23L5 23C3.9 23 3 22.1 3 21L3 15.99C3 15.45 3.45 15 4 15C4.54 15 4.99 15.45 4.99 15.99L4.99 20C4.99 20.55 5.44 21 5.99 21L18.01 21C18.56 21 19.01 20.55 19.01 20L19.01 4C19.01 3.45 18.56 3 18.01 3L5.98 3C5.43 3 4.98 3.45 4.98 4L4.98 8.01C4.98 8.55 4.54 9 3.99 9C3.45 9 3 8.55 3 8.01ZM12.86 8.86L15.65 11.65C15.84 11.84 15.84 12.16 15.64 12.35L12.85 15.14C12.54 15.46 12 15.24 12 14.79L12 13L4 13C3.45 13 3 12.55 3 12C3 11.45 3.45 11 4 11L12.01 11L12.01 9.21C12.01 8.77 12.55 8.55 12.86 8.86Z" fill="black"/>
</g>
</mask>
<g mask="url(#mask0_258_319)">
<rect id="Color Fill" y="24" width="24" height="24" transform="rotate(-90 0 24)" fill="#19AB4F"/>
</g>
</g>
</svg>
