<svg width="20" height="20" viewBox="0 0 20 20" fill="none" xmlns="http://www.w3.org/2000/svg">
<path d="M18.5435 4.61785C18.49 4.4485 18.3519 4.31993 18.1792 4.27791C18.0072 4.23588 17.8251 4.28671 17.6998 4.41193L15.5548 6.55624L13.9129 6.08637L13.443 4.44453L15.5881 2.29947C15.7139 2.17425 15.7641 1.99213 15.7221 1.82005C15.6801 1.64747 15.5515 1.50998 15.3821 1.4558C14.9488 1.3198 14.4878 1.25 14.0105 1.25C11.3969 1.25 9.27079 3.37609 9.27079 5.98954C9.27079 6.54273 9.36365 7.07695 9.54714 7.58204L3.09584 14.0333C2.71126 14.4173 2.5 14.9271 2.5 15.4688C2.5 16.0104 2.71126 16.5202 3.09584 16.9042C3.4798 17.2887 3.98959 17.5 4.53125 17.5C5.07291 17.5 5.5827 17.2887 5.96666 16.9042L12.418 10.4529C12.923 10.6363 13.4573 10.7292 14.0105 10.7292C16.6239 10.7292 18.75 8.60312 18.75 5.98954C18.75 5.51223 18.6802 5.05116 18.5435 4.61785Z" fill="#19AB4F"/>
</svg>
