<svg width="16" height="16" viewBox="0 0 16 16" fill="none" xmlns="http://www.w3.org/2000/svg">
<mask id="mask0_729_13036" style="mask-type:alpha" maskUnits="userSpaceOnUse" x="2" y="2" width="12" height="12">
<path d="M3.47233 8.66668H10.919L7.66566 11.92C7.40566 12.18 7.40566 12.6067 7.66566 12.8667C7.92566 13.1267 8.34566 13.1267 8.60566 12.8667L12.999 8.47334C13.259 8.21334 13.259 7.79334 12.999 7.53334L8.61233 3.13334C8.48778 3.00851 8.31868 2.93835 8.14233 2.93835C7.96599 2.93835 7.79689 3.00851 7.67233 3.13334C7.41233 3.39334 7.41233 3.81334 7.67233 4.07334L10.919 7.33334H3.47233C3.10566 7.33334 2.80566 7.63334 2.80566 8.00001C2.80566 8.36668 3.10566 8.66668 3.47233 8.66668Z" fill="black"/>
</mask>
<g mask="url(#mask0_729_13036)">
<rect width="16" height="16" fill="white"/>
</g>
</svg>
