<svg width="16" height="16" viewBox="0 0 16 16" fill="none" xmlns="http://www.w3.org/2000/svg">
<mask id="mask0_729_18876" style="mask-type:alpha" maskUnits="userSpaceOnUse" x="1" y="1" width="14" height="14">
<path fill-rule="evenodd" clip-rule="evenodd" d="M7.99967 1.33325C4.31967 1.33325 1.33301 4.31992 1.33301 7.99992C1.33301 11.6799 4.31967 14.6666 7.99967 14.6666C11.6797 14.6666 14.6663 11.6799 14.6663 7.99992C14.6663 4.31992 11.6797 1.33325 7.99967 1.33325ZM7.33301 4.66659V5.99992H8.66634V4.66659H7.33301ZM8.66634 10.6666C8.66634 11.0333 8.36634 11.3333 7.99967 11.3333C7.63301 11.3333 7.33301 11.0333 7.33301 10.6666V7.99992C7.33301 7.63325 7.63301 7.33325 7.99967 7.33325C8.36634 7.33325 8.66634 7.63325 8.66634 7.99992V10.6666ZM2.66634 7.99992C2.66634 10.9399 5.05967 13.3333 7.99967 13.3333C10.9397 13.3333 13.333 10.9399 13.333 7.99992C13.333 5.05992 10.9397 2.66659 7.99967 2.66659C5.05967 2.66659 2.66634 5.05992 2.66634 7.99992Z" fill="black"/>
</mask>
<g mask="url(#mask0_729_18876)">
<rect width="16" height="16" fill="#858C94"/>
</g>
</svg>
